<mxfile host="app.diagrams.net" modified="2023-08-14T14:02:33.774Z" agent="Mozilla/5.0 (Windows NT 10.0; Win64; x64) AppleWebKit/537.36 (KHTML, like Gecko) Chrome/115.0.0.0 Safari/537.36 Edg/115.0.1901.203" etag="HhUdF1hGQVfXCfdFiwEe" version="21.6.8" type="github">
  <diagram name="Page-1" id="I8Q2k8WWFIILOwd1yBgv">
    <mxGraphModel dx="2019" dy="1124" grid="1" gridSize="10" guides="1" tooltips="1" connect="1" arrows="1" fold="1" page="1" pageScale="1" pageWidth="850" pageHeight="1100" math="0" shadow="0">
      <root>
        <mxCell id="0" />
        <mxCell id="1" parent="0" />
        <mxCell id="iXAZGwJfo8L6IywnV1ya-2" value="&lt;font style=&quot;font-size: 18px;&quot;&gt;FM&lt;/font&gt;" style="shape=cylinder3;whiteSpace=wrap;html=1;boundedLbl=1;backgroundOutline=1;size=15;" vertex="1" parent="1">
          <mxGeometry x="74" y="50" width="160" height="190" as="geometry" />
        </mxCell>
        <mxCell id="iXAZGwJfo8L6IywnV1ya-29" style="edgeStyle=orthogonalEdgeStyle;rounded=0;orthogonalLoop=1;jettySize=auto;html=1;exitX=1;exitY=0.5;exitDx=0;exitDy=0;exitPerimeter=0;" edge="1" parent="1" source="iXAZGwJfo8L6IywnV1ya-4">
          <mxGeometry relative="1" as="geometry">
            <mxPoint x="340" y="540" as="targetPoint" />
          </mxGeometry>
        </mxCell>
        <mxCell id="iXAZGwJfo8L6IywnV1ya-40" value="" style="edgeStyle=orthogonalEdgeStyle;rounded=0;orthogonalLoop=1;jettySize=auto;html=1;entryX=0.5;entryY=1;entryDx=0;entryDy=0;entryPerimeter=0;exitX=0.5;exitY=0;exitDx=0;exitDy=0;exitPerimeter=0;" edge="1" parent="1" source="iXAZGwJfo8L6IywnV1ya-4" target="iXAZGwJfo8L6IywnV1ya-2">
          <mxGeometry relative="1" as="geometry">
            <mxPoint x="172" y="320" as="targetPoint" />
            <Array as="points">
              <mxPoint x="153" y="420" />
              <mxPoint x="154" y="420" />
            </Array>
          </mxGeometry>
        </mxCell>
        <mxCell id="iXAZGwJfo8L6IywnV1ya-4" value="&lt;font style=&quot;font-size: 18px;&quot;&gt;Raw JSON&amp;nbsp;&lt;/font&gt;" style="shape=card;whiteSpace=wrap;html=1;" vertex="1" parent="1">
          <mxGeometry x="81" y="450" width="144" height="180" as="geometry" />
        </mxCell>
        <mxCell id="iXAZGwJfo8L6IywnV1ya-7" value="&lt;font style=&quot;font-size: 18px;&quot;&gt;Entity Buffer&amp;nbsp;&lt;/font&gt;" style="shape=card;whiteSpace=wrap;html=1;" vertex="1" parent="1">
          <mxGeometry x="343" y="440" width="144" height="180" as="geometry" />
        </mxCell>
        <mxCell id="iXAZGwJfo8L6IywnV1ya-11" value="&lt;font style=&quot;font-size: 18px;&quot;&gt;Entity Buffer&amp;nbsp;&lt;/font&gt;" style="shape=card;whiteSpace=wrap;html=1;" vertex="1" parent="1">
          <mxGeometry x="353" y="450" width="144" height="180" as="geometry" />
        </mxCell>
        <mxCell id="iXAZGwJfo8L6IywnV1ya-31" style="edgeStyle=orthogonalEdgeStyle;rounded=0;orthogonalLoop=1;jettySize=auto;html=1;exitX=1;exitY=0.5;exitDx=0;exitDy=0;exitPerimeter=0;entryX=0;entryY=0;entryDx=0;entryDy=105;entryPerimeter=0;" edge="1" parent="1" source="iXAZGwJfo8L6IywnV1ya-12" target="iXAZGwJfo8L6IywnV1ya-13">
          <mxGeometry relative="1" as="geometry" />
        </mxCell>
        <mxCell id="iXAZGwJfo8L6IywnV1ya-12" value="&lt;font style=&quot;font-size: 18px;&quot;&gt;Record Buffer&amp;nbsp;&lt;/font&gt;" style="shape=card;whiteSpace=wrap;html=1;" vertex="1" parent="1">
          <mxGeometry x="363" y="460" width="144" height="180" as="geometry" />
        </mxCell>
        <mxCell id="iXAZGwJfo8L6IywnV1ya-13" value="&lt;span style=&quot;font-size: 18px;&quot;&gt;Record&lt;/span&gt;" style="shape=card;whiteSpace=wrap;html=1;" vertex="1" parent="1">
          <mxGeometry x="610" y="445" width="144" height="180" as="geometry" />
        </mxCell>
        <mxCell id="iXAZGwJfo8L6IywnV1ya-14" value="&lt;span style=&quot;font-size: 18px;&quot;&gt;Record&lt;/span&gt;" style="shape=card;whiteSpace=wrap;html=1;" vertex="1" parent="1">
          <mxGeometry x="620" y="455" width="144" height="180" as="geometry" />
        </mxCell>
        <mxCell id="iXAZGwJfo8L6IywnV1ya-15" value="&lt;span style=&quot;font-size: 18px;&quot;&gt;Record&lt;/span&gt;" style="shape=card;whiteSpace=wrap;html=1;" vertex="1" parent="1">
          <mxGeometry x="630" y="465" width="144" height="180" as="geometry" />
        </mxCell>
        <mxCell id="iXAZGwJfo8L6IywnV1ya-30" value="&lt;span style=&quot;font-size: 18px;&quot;&gt;Error Log&lt;/span&gt;" style="shape=card;whiteSpace=wrap;html=1;" vertex="1" parent="1">
          <mxGeometry x="580" y="70" width="144" height="180" as="geometry" />
        </mxCell>
        <mxCell id="iXAZGwJfo8L6IywnV1ya-51" style="edgeStyle=orthogonalEdgeStyle;rounded=0;orthogonalLoop=1;jettySize=auto;html=1;entryX=0;entryY=0;entryDx=0;entryDy=105;entryPerimeter=0;dashed=1;fillColor=#ffe6cc;strokeColor=#FF9999;" edge="1" parent="1" source="iXAZGwJfo8L6IywnV1ya-33" target="iXAZGwJfo8L6IywnV1ya-30">
          <mxGeometry relative="1" as="geometry">
            <Array as="points">
              <mxPoint x="290" y="175" />
            </Array>
          </mxGeometry>
        </mxCell>
        <mxCell id="iXAZGwJfo8L6IywnV1ya-33" value="&lt;font style=&quot;font-size: 18px;&quot;&gt;Decode&lt;/font&gt;" style="text;html=1;strokeColor=none;fillColor=none;align=center;verticalAlign=middle;whiteSpace=wrap;rounded=0;" vertex="1" parent="1">
          <mxGeometry x="250" y="500" width="60" height="30" as="geometry" />
        </mxCell>
        <mxCell id="iXAZGwJfo8L6IywnV1ya-34" style="edgeStyle=orthogonalEdgeStyle;rounded=0;orthogonalLoop=1;jettySize=auto;html=1;exitX=0.5;exitY=1;exitDx=0;exitDy=0;" edge="1" parent="1" source="iXAZGwJfo8L6IywnV1ya-33" target="iXAZGwJfo8L6IywnV1ya-33">
          <mxGeometry relative="1" as="geometry" />
        </mxCell>
        <mxCell id="iXAZGwJfo8L6IywnV1ya-53" style="edgeStyle=orthogonalEdgeStyle;rounded=0;orthogonalLoop=1;jettySize=auto;html=1;entryX=0;entryY=0;entryDx=0;entryDy=105;entryPerimeter=0;dashed=1;strokeColor=#FF9999;" edge="1" parent="1" source="iXAZGwJfo8L6IywnV1ya-36" target="iXAZGwJfo8L6IywnV1ya-30">
          <mxGeometry relative="1" as="geometry">
            <Array as="points">
              <mxPoint x="260" y="175" />
            </Array>
          </mxGeometry>
        </mxCell>
        <mxCell id="iXAZGwJfo8L6IywnV1ya-36" value="&lt;font style=&quot;font-size: 18px;&quot;&gt;Endpoint Request&lt;/font&gt;" style="text;html=1;strokeColor=none;fillColor=none;align=center;verticalAlign=middle;whiteSpace=wrap;rounded=0;" vertex="1" parent="1">
          <mxGeometry x="160" y="310" width="110" height="60" as="geometry" />
        </mxCell>
        <mxCell id="iXAZGwJfo8L6IywnV1ya-52" style="edgeStyle=orthogonalEdgeStyle;rounded=0;orthogonalLoop=1;jettySize=auto;html=1;entryX=0;entryY=0;entryDx=0;entryDy=105;entryPerimeter=0;dashed=1;fillColor=#ffe6cc;strokeColor=#FF9999;" edge="1" parent="1" source="iXAZGwJfo8L6IywnV1ya-50" target="iXAZGwJfo8L6IywnV1ya-30">
          <mxGeometry relative="1" as="geometry">
            <Array as="points">
              <mxPoint x="560" y="175" />
            </Array>
          </mxGeometry>
        </mxCell>
        <mxCell id="iXAZGwJfo8L6IywnV1ya-50" value="&lt;font style=&quot;font-size: 18px;&quot;&gt;Apply&lt;/font&gt;" style="text;html=1;strokeColor=none;fillColor=none;align=center;verticalAlign=middle;whiteSpace=wrap;rounded=0;" vertex="1" parent="1">
          <mxGeometry x="530" y="500" width="60" height="30" as="geometry" />
        </mxCell>
        <mxCell id="iXAZGwJfo8L6IywnV1ya-55" value="&lt;font style=&quot;font-size: 14px;&quot;&gt;One generic table to store all request with JSON in blob.&lt;/font&gt;" style="text;html=1;strokeColor=none;fillColor=none;align=center;verticalAlign=middle;whiteSpace=wrap;rounded=0;" vertex="1" parent="1">
          <mxGeometry x="70" y="660" width="147" height="30" as="geometry" />
        </mxCell>
        <mxCell id="iXAZGwJfo8L6IywnV1ya-57" value="&lt;font style=&quot;font-size: 14px;&quot;&gt;As many buffer tables as many different entities.&lt;/font&gt;" style="text;html=1;strokeColor=none;fillColor=none;align=center;verticalAlign=middle;whiteSpace=wrap;rounded=0;" vertex="1" parent="1">
          <mxGeometry x="353" y="660" width="170" height="30" as="geometry" />
        </mxCell>
        <mxCell id="iXAZGwJfo8L6IywnV1ya-58" value="&lt;font style=&quot;font-size: 14px;&quot;&gt;Standard or customized record.&lt;/font&gt;" style="text;html=1;strokeColor=none;fillColor=none;align=center;verticalAlign=middle;whiteSpace=wrap;rounded=0;" vertex="1" parent="1">
          <mxGeometry x="617" y="660" width="170" height="30" as="geometry" />
        </mxCell>
        <mxCell id="iXAZGwJfo8L6IywnV1ya-59" value="&lt;span style=&quot;font-size: 18px;&quot;&gt;Enum&lt;br&gt;Request Type&lt;br&gt;&lt;/span&gt;" style="shape=card;whiteSpace=wrap;html=1;" vertex="1" parent="1">
          <mxGeometry x="580" y="800" width="144" height="180" as="geometry" />
        </mxCell>
      </root>
    </mxGraphModel>
  </diagram>
</mxfile>
